<svg width="1600" height="900" viewBox="0 0 1600 900" fill="none" xmlns="http://www.w3.org/2000/svg">
  <rect width="1600" height="900" fill="#081611"/>
  <rect x="44" y="36" width="1512" height="828" rx="22" fill="#0D1F18" stroke="#1E6D53" stroke-width="2"/>
  <rect x="86" y="90" width="560" height="42" rx="10" fill="#123E30"/>
  <rect x="86" y="162" width="760" height="16" rx="8" fill="#21B687"/>
  <rect x="86" y="198" width="620" height="10" rx="5" fill="#8CB9AA"/>
  <rect x="86" y="252" width="1428" height="522" rx="14" fill="#10271E" stroke="#1E6D53"/>
  <rect x="120" y="286" width="1360" height="50" rx="10" fill="#113428"/>
  <rect x="140" y="306" width="200" height="10" rx="5" fill="#9CD4C1"/>
  <rect x="396" y="306" width="140" height="10" rx="5" fill="#9CD4C1"/>
  <rect x="594" y="306" width="160" height="10" rx="5" fill="#9CD4C1"/>
  <rect x="812" y="306" width="180" height="10" rx="5" fill="#9CD4C1"/>
  <rect x="1048" y="306" width="170" height="10" rx="5" fill="#9CD4C1"/>
  <rect x="1274" y="306" width="160" height="10" rx="5" fill="#9CD4C1"/>
  <rect x="120" y="352" width="1360" height="58" rx="10" fill="#0F2F24"/>
  <rect x="120" y="422" width="1360" height="58" rx="10" fill="#113428"/>
  <rect x="120" y="492" width="1360" height="58" rx="10" fill="#0F2F24"/>
  <rect x="120" y="562" width="1360" height="58" rx="10" fill="#113428"/>
  <rect x="120" y="632" width="1360" height="58" rx="10" fill="#0F2F24"/>
  <text x="86" y="820" fill="#9CD4C1" font-size="34" font-family="Arial, sans-serif">Generated cut list output preview</text>
</svg>
